<svg width="490" height="526" viewBox="0 0 490 526" fill="none" xmlns="http://www.w3.org/2000/svg">
<path d="M244.999 271.886C240.359 271.882 235.913 270.034 232.632 266.753C229.351 263.472 227.503 259.026 227.499 254.386H209.999C209.999 266.89 216.671 278.445 227.499 284.698C238.327 290.948 251.671 290.948 262.499 284.698C273.327 278.444 279.999 266.889 279.999 254.386H262.499C262.495 259.026 260.648 263.472 257.367 266.753C254.085 270.034 249.64 271.882 245 271.886H244.999Z" fill="white"/>
<path d="M166.249 175.636C154.651 175.647 143.53 180.261 135.327 188.464C127.124 196.667 122.511 207.788 122.499 219.386H139.999C139.999 210.007 145.003 201.343 153.124 196.652C161.245 191.964 171.253 191.964 179.374 196.652C187.495 201.343 192.499 210.007 192.499 219.386H209.999C209.987 207.788 205.374 196.667 197.171 188.464C188.968 180.261 177.847 175.648 166.249 175.636Z" fill="white"/>
<path d="M323.749 175.636C312.151 175.647 301.03 180.261 292.827 188.464C284.624 196.667 280.011 207.788 279.999 219.386H297.499C297.499 210.007 302.503 201.343 310.624 196.652C318.745 191.964 328.753 191.964 336.874 196.652C344.995 201.343 349.999 210.007 349.999 219.386H367.499C367.487 207.788 362.874 196.667 354.671 188.464C346.468 180.261 335.347 175.648 323.749 175.636Z" fill="white"/>
<path d="M463.749 169.806V118.759C463.714 87.4427 451.257 57.4147 429.112 35.2707C406.967 13.1267 376.94 0.668667 345.624 0.633667H183.744V18.1337H345.624C372.304 18.1649 397.878 28.7747 416.745 47.6377C435.608 66.5047 446.218 92.0787 446.249 118.759V166.884H435.417L419.659 111.97C418.866 109.204 416.765 107.005 414.034 106.087C411.308 105.173 408.3 105.657 405.999 107.384L377.784 128.544L348.081 91.4188C346.44 89.3641 343.964 88.161 341.335 88.1336H341.249C338.651 88.1336 336.19 89.2859 334.526 91.282L295.214 138.458L161.414 71.56C159.227 70.4623 156.68 70.3373 154.391 71.2045C152.106 72.0756 150.285 73.8607 149.375 76.1342L136.254 108.935L101.715 81.3022C99.555 79.5717 96.6996 78.9663 94.0238 79.6733C91.348 80.3764 89.1605 82.3061 88.1293 84.8764L55.2273 166.884H43.7503V118.759C43.7815 92.0794 54.3913 66.5054 73.2543 47.6384C92.1213 28.7754 117.695 18.1654 144.375 18.1344H166.25V0.634398H144.375C113.059 0.669554 83.0313 13.1264 60.8873 35.2714C38.7433 57.4164 26.2853 87.4434 26.2503 118.759V169.806C18.512 172.884 11.8753 178.209 7.1953 185.099C2.5156 191.986 0.0078 200.119 0 208.447V247.822C0.011719 258.842 4.3945 269.404 12.188 277.197C19.9815 284.99 30.543 289.373 41.563 289.385H59.223C67.2777 306.924 81.805 320.67 99.758 327.752C91.9064 335.538 87.492 346.139 87.5 357.197V455.635C87.5156 469.553 93.0508 482.897 102.895 492.74C112.739 502.583 126.083 508.119 140 508.135V516.885C140 519.206 140.922 521.432 142.562 523.073C144.203 524.714 146.43 525.635 148.75 525.635H341.25C343.57 525.635 345.797 524.714 347.438 523.073C349.078 521.432 350 519.206 350 516.885V508.135C363.918 508.12 377.262 502.585 387.105 492.74C396.948 482.896 402.484 469.552 402.5 455.635V394.385H385V429.385H350.121L358.633 378.323L341.371 375.445L332.621 427.945L332.617 427.948C332.539 428.421 332.5 428.905 332.5 429.386V507.784C322.168 506.511 312.578 501.753 305.309 494.296C298.043 486.843 293.536 477.132 292.532 466.769L282.177 363.199L309.751 383.883C312.001 385.57 314.926 386.074 317.61 385.235C320.294 384.399 322.415 382.32 323.301 379.649L338.809 333.133H360.938C367.317 333.14 373.434 335.676 377.946 340.187C382.458 344.699 384.993 350.816 385.001 357.195V376.883H402.501V357.195C402.509 346.136 398.095 335.535 390.243 327.75C408.196 320.668 422.723 306.922 430.778 289.383H448.438C459.458 289.372 470.02 284.989 477.813 277.195C485.606 269.402 489.989 258.84 490.001 247.82V208.445C489.993 200.117 487.485 191.984 482.806 185.097C478.126 178.207 471.49 172.882 463.751 169.804L463.749 169.806ZM52.4991 271.886H41.5611C35.1822 271.878 29.0651 269.343 24.5531 264.831C20.0414 260.319 17.5062 254.202 17.4984 247.823V208.448C17.5062 202.069 20.0414 195.952 24.5531 191.44C29.0648 186.928 35.1821 184.393 41.5611 184.385H52.4991V271.886ZM197.469 466.766C196.465 477.129 191.957 486.84 184.692 494.293C177.423 501.75 167.833 506.508 157.501 507.781V429.383C157.501 428.902 157.462 428.418 157.384 427.945L148.634 375.445L131.372 378.324L139.88 429.383H105.001V357.195C105.009 350.816 107.544 344.699 112.055 340.187C116.567 335.675 122.684 333.14 129.063 333.132H151.192L166.7 379.648C167.587 382.32 169.708 384.398 172.392 385.234C175.075 386.074 178.001 385.57 180.251 383.883L207.825 363.203L197.469 466.766ZM179.461 362.596L169.641 333.131H218.75L179.461 362.596ZM105 455.631V446.881H140V490.631C130.719 490.619 121.824 486.928 115.262 480.369C108.704 473.806 105.012 464.912 105 455.631ZM385 446.881V455.631C384.988 464.912 381.297 473.807 374.738 480.369C368.176 486.927 359.281 490.619 350 490.631V446.881H385ZM294.391 508.131H195.61C206.571 497.658 213.411 483.596 214.883 468.506L215.293 464.381H274.707L275.121 468.506H275.117C276.59 483.596 283.43 497.658 294.39 508.131H294.391ZM272.957 446.881H217.043L226.836 348.94L245 335.319L263.164 348.94L272.957 446.881ZM310.539 362.596L271.25 333.131H320.359L310.539 362.596ZM363.125 315.366H126.875C111.797 315.35 97.3401 309.35 86.6761 298.69C76.0161 288.026 70.0161 273.569 70.0001 258.491V256.838L131.25 272.15C131.336 283.611 137.024 294.306 146.48 300.783C155.937 307.26 167.964 308.697 178.679 304.631C189.398 300.569 197.449 291.514 200.23 280.397C203.015 269.28 200.179 257.502 192.64 248.866C185.101 240.233 173.816 235.835 162.421 237.093C151.03 238.351 140.972 245.105 135.499 255.175L69.9993 238.8V177.058L99.9833 102.328L134.534 129.969V129.965C136.698 131.696 139.55 132.301 142.23 131.594C144.909 130.887 147.093 128.953 148.124 126.383L162.093 91.4612L293.583 157.207C297.216 159.027 301.618 158.106 304.22 154.984L341.111 110.714L369.416 146.097C372.369 149.789 377.717 150.469 381.498 147.633L406.342 129L419.998 176.598V258.493C419.983 273.571 413.983 288.028 403.322 298.692C392.658 309.352 378.201 315.352 363.123 315.368L363.125 315.366ZM148.745 271.882C148.745 267.241 150.589 262.788 153.87 259.507C157.151 256.225 161.605 254.382 166.245 254.382C170.886 254.382 175.339 256.225 178.62 259.507C181.901 262.788 183.745 267.241 183.745 271.882C183.745 276.522 181.901 280.975 178.62 284.257C175.339 287.538 170.886 289.382 166.245 289.382C161.605 289.378 157.159 287.53 153.878 284.249C150.597 280.968 148.749 276.522 148.745 271.882L148.745 271.882ZM472.495 247.82C472.487 254.199 469.952 260.316 465.44 264.828C460.929 269.339 454.811 271.875 448.432 271.882H437.494V184.382H448.432C454.811 184.39 460.928 186.925 465.44 191.437C469.952 195.949 472.487 202.066 472.495 208.445V247.82Z" fill="white"/>
</svg>
