<svg width="519" height="519" viewBox="0 0 519 519" fill="none" xmlns="http://www.w3.org/2000/svg">
<path d="M175.461 503.745C181.949 495.26 184.094 484.557 181.34 474.382L177.547 460.382C173.367 444.925 158.742 434.132 141.973 434.132H41.063C24.297 434.132 9.66802 444.925 5.48902 460.382L1.69602 474.382C-1.06178 484.562 1.08664 495.265 7.57492 503.745C14.4655 512.756 25.5669 518.132 37.2699 518.132H145.77C157.473 518.132 168.575 512.757 175.465 503.745H175.461ZM29.8111 486.737C28.9869 485.658 28.1236 483.908 28.7252 481.697L32.5182 467.697C33.3776 464.471 36.9713 462.131 41.0573 462.131H141.977C146.059 462.131 149.649 464.471 150.524 467.697L154.317 481.697C154.911 483.901 154.059 485.651 153.231 486.737C151.599 488.858 148.813 490.131 145.767 490.131H37.2665C34.2196 490.131 31.4345 488.858 29.8134 486.737H29.8111Z" fill="white"/>
<path d="M28.5111 84.1345C28.5111 91.8611 34.7845 98.1345 42.5111 98.1345C50.2377 98.1345 56.5111 91.8611 56.5111 84.1345V56.1345C56.5111 48.4079 50.2377 42.1345 42.5111 42.1345C34.7845 42.1345 28.5111 48.4079 28.5111 56.1345V84.1345Z" fill="white"/>
<path d="M483.511 189.135C469.195 189.135 456.898 197.795 451.48 210.135H196.51C188.784 210.135 182.51 216.408 182.51 224.135C182.51 231.861 188.784 238.135 196.51 238.135H448.51V280.135H424.444L427.096 269.53C428.971 262.026 424.409 254.425 416.905 252.55C409.409 250.651 401.807 255.237 399.928 262.734L395.577 280.136H375.444L378.096 269.531C379.971 262.027 375.409 254.426 367.905 252.551C360.421 250.652 352.807 255.238 350.928 262.735L346.577 280.137H326.444L329.096 269.532C330.971 262.028 326.408 254.427 318.905 252.552C311.417 250.653 303.807 255.239 301.928 262.736L297.576 280.138H168.506V154.138C168.506 130.974 149.67 112.138 126.506 112.138H56.5062C33.3422 112.138 14.5062 130.974 14.5062 154.138V364.138C14.5062 387.302 33.3422 406.138 56.5062 406.138H126.506C149.67 406.138 168.506 387.302 168.506 364.138V308.138H451.476C456.894 320.478 469.195 329.138 483.507 329.138C502.808 329.138 518.507 313.439 518.507 294.138V224.138C518.507 204.837 502.808 189.138 483.507 189.138L483.511 189.135ZM140.511 364.135C140.511 371.857 134.234 378.135 126.511 378.135H56.5111C48.7884 378.135 42.5111 371.857 42.5111 364.135H112.511C120.238 364.135 126.511 357.861 126.511 350.135C126.511 342.408 120.238 336.135 112.511 336.135H42.5111V182.135H140.511V364.135ZM42.5111 154.135C42.5111 146.412 48.7884 140.135 56.5111 140.135H126.511C134.234 140.135 140.511 146.412 140.511 154.135H42.5111ZM490.511 294.135C490.511 297.998 487.367 301.135 483.511 301.135C479.656 301.135 476.511 297.998 476.511 294.135V224.135C476.511 220.271 479.656 217.135 483.511 217.135C487.367 217.135 490.511 220.271 490.511 224.135V294.135Z" fill="white"/>
<path d="M56.5111 14.1345C56.5111 21.865 50.2416 28.1345 42.5111 28.1345C34.7806 28.1345 28.5111 21.865 28.5111 14.1345C28.5111 6.40402 34.7806 0.134521 42.5111 0.134521C50.2416 0.134521 56.5111 6.40402 56.5111 14.1345Z" fill="white"/>
<path d="M140.511 56.1345C148.238 56.1345 154.511 49.8611 154.511 42.1345V14.1345C154.511 6.40792 148.238 0.134521 140.511 0.134521C132.785 0.134521 126.511 6.40792 126.511 14.1345V42.1345C126.511 49.8611 132.785 56.1345 140.511 56.1345Z" fill="white"/>
<path d="M154.511 84.1345C154.511 91.865 148.242 98.1345 140.511 98.1345C132.781 98.1345 126.511 91.865 126.511 84.1345C126.511 76.404 132.781 70.1345 140.511 70.1345C148.242 70.1345 154.511 76.404 154.511 84.1345Z" fill="white"/>
</svg>
